<?xml version="1.0" standalone="no"?>
<!DOCTYPE svg PUBLIC "-//W3C//DTD SVG 20010904//EN"
 "http://www.w3.org/TR/2001/REC-SVG-20010904/DTD/svg10.dtd">
<svg version="1.0" xmlns="http://www.w3.org/2000/svg"
 width="1000.000000pt" height="1000.000000pt" viewBox="0 0 1000.000000 1000.000000"
 preserveAspectRatio="xMidYMid meet">

<g transform="translate(0.000000,1000.000000) scale(0.100000,-0.100000)"
fill="#000000" stroke="none">
<path d="M8040 8046 c712 -713 1296 -1296 1298 -1296 2 0 1 46 -3 103 -39 617
-113 1134 -241 1667 -46 196 -114 432 -128 447 -26 27 -530 153 -867 217 -412
78 -740 117 -1259 151 l-95 6 1295 -1295z"/>
<path d="M5305 9283 c-133 -19 -448 -83 -630 -128 -1236 -306 -2221 -942
-2942 -1900 -515 -684 -862 -1559 -999 -2514 l-16 -114 1955 -1955 1955 -1955
149 22 c984 151 1833 496 2533 1029 427 325 803 727 1108 1183 427 640 727
1446 858 2307 l17 114 -394 396 c-217 219 -1096 1100 -1954 1960 -1290 1292
-1564 1562 -1585 1561 -14 -1 -38 -4 -55 -6z m1775 -3058 l-94 -95 -38 37 -38
37 0 -34 c0 -96 -57 -218 -140 -300 -97 -97 -223 -150 -355 -150 -266 0 -533
208 -610 474 -25 84 -23 213 4 297 19 60 74 155 118 204 72 80 174 132 280
142 l64 6 -38 39 -37 38 94 95 95 95 395 -395 395 -395 -95 -95z m-1563 -37
c6 -18 101 -294 212 -613 111 -318 201 -585 201 -592 0 -16 0 -16 -46 3 -22 9
-88 36 -149 59 -60 23 -198 76 -306 118 -107 43 -198 77 -201 77 -3 0 7 -33
23 -72 189 -484 246 -634 244 -636 -2 -2 -77 22 -167 53 -90 31 -298 103 -463
160 -165 57 -372 129 -459 159 -87 31 -162 56 -165 56 -3 0 41 47 99 105 58
58 110 105 116 105 6 0 143 -50 305 -111 162 -61 302 -114 311 -116 17 -5 -6
57 -186 502 -47 115 -83 212 -80 214 2 3 161 -58 352 -135 191 -76 352 -140
359 -142 13 -4 3 25 -136 393 l-92 239 103 103 c56 57 105 103 109 103 3 0 10
-15 16 -32z m-1570 -1230 l143 -143 68 68 67 67 83 -83 c45 -45 82 -87 82 -92
0 -5 -28 -38 -62 -72 l-63 -63 303 -303 c166 -166 302 -307 302 -312 0 -6 -40
-50 -89 -99 -82 -81 -91 -88 -108 -75 -9 8 -149 145 -309 306 l-291 292 -34
-35 c-18 -19 -38 -34 -43 -34 -14 0 -166 152 -166 165 0 6 14 24 30 40 17 16
30 32 30 37 0 4 -63 72 -141 149 l-141 142 93 93 c52 52 96 94 99 94 2 0 69
-64 147 -142z m-312 -588 c6 0 40 29 75 65 l65 65 82 -82 c46 -46 83 -87 83
-93 0 -6 -29 -40 -65 -75 l-65 -65 307 -307 308 -308 -90 -90 c-49 -49 -94
-90 -100 -90 -5 0 -146 136 -312 302 l-303 302 -33 -32 c-18 -18 -37 -32 -42
-32 -5 0 -47 37 -92 82 l-83 82 37 38 37 38 -144 145 -145 145 95 95 95 95
140 -140 c77 -77 145 -140 150 -140z m-750 -53 c112 -63 112 -227 -1 -293
-147 -86 -318 84 -230 230 49 82 149 109 231 63z m727 -764 c214 -214 388
-392 388 -398 0 -11 -171 -185 -182 -185 -4 0 -184 176 -399 391 l-391 391 93
94 c52 52 96 94 99 94 3 0 179 -174 392 -387z"/>
<path d="M6243 6634 c-58 -21 -129 -87 -160 -148 -103 -199 88 -482 333 -494
61 -4 81 0 126 20 63 29 119 85 150 148 34 69 32 186 -6 259 -39 75 -115 152
-189 192 -51 27 -74 33 -137 36 -50 2 -89 -3 -117 -13z"/>
<path d="M664 3175 c38 -524 75 -831 151 -1246 32 -174 86 -427 121 -564 40
-159 88 -321 98 -332 6 -6 67 -27 136 -46 586 -166 1252 -277 1904 -317 93 -6
170 -9 172 -7 2 1 -580 585 -1292 1297 l-1295 1295 5 -80z"/>
</g>
</svg>
